<?xml version="1.0" encoding="UTF-8"?>
<svg id="Layer_1" data-name="Layer 1" xmlns="http://www.w3.org/2000/svg" viewBox="0 0 163.12 124.64">
  <defs>
    <style>
      .cls-1 {
        fill: #c5630c;
      }

      .cls-2 {
        fill: #a47f6f;
      }

      .cls-3 {
        fill: none;
        stroke: #a47f6f;
        stroke-miterlimit: 10;
        stroke-width: 5.54px;
      }
    </style>
  </defs>
  <path class="cls-1" d="m66.07,49.71c9.33,11.37,12.56,30.57,9.86,26.34-3.46-5.43-14.58-3.45-23.91-14.82-9.33-11.37-9.08-22.41-13.63-26.95-2.27-2.27,18.35,4.06,27.67,15.43Z"/>
  <path class="cls-1" d="m76.87,75.68c0,5.44-10.65,9.86-23.78,9.86s-26.05-11.36-26.05-11.36c0,0,12.92-8.36,26.05-8.36s23.78,4.41,23.78,9.86Z"/>
  <rect class="cls-2" x="22.49" y="10.22" width="9.09" height="29.53" rx=".73" ry=".73"/>
  <rect class="cls-2" x="15.08" y="13.63" width="6.68" height="20.44" rx=".73" ry=".73"/>
  <rect class="cls-2" x="31.58" y="21.09" width="36.34" height="6.81"/>
  <path class="cls-1" d="m97.45,28.39c0,15.68-12.49,28.39-12.49,28.39,0,0-12.49-12.71-12.49-28.39S84.96,0,84.96,0c0,0,12.49,12.71,12.49,28.39Z"/>
  <path class="cls-3" d="m31.58,25.13c26.46,0,48.23,23.24,50.84,53.02"/>
  <path class="cls-1" d="m103.64,49.71c-9.33,11.37-12.56,30.57-9.86,26.34,3.46-5.43,14.58-3.45,23.91-14.82,9.33-11.37,9.08-22.41,13.63-26.95,2.27-2.27-18.35,4.06-27.67,15.43Z"/>
  <path class="cls-1" d="m92.84,75.68c0,5.44,10.65,9.86,23.78,9.86s26.05-11.36,26.05-11.36c0,0-12.92-8.36-26.05-8.36s-23.78,4.41-23.78,9.86Z"/>
  <rect class="cls-2" x="138.13" y="10.22" width="9.09" height="29.53" rx=".73" ry=".73" transform="translate(285.34 49.97) rotate(180)"/>
  <rect class="cls-2" x="147.95" y="13.63" width="6.68" height="20.44" rx=".73" ry=".73" transform="translate(302.57 47.7) rotate(180)"/>
  <rect class="cls-2" x="101.79" y="21.09" width="36.34" height="6.81" transform="translate(239.92 48.99) rotate(180)"/>
  <path class="cls-3" d="m138.13,25.13c-26.46,0-48.23,23.24-50.84,53.02"/>
  <path class="cls-3" d="m90.22,77.28h-10.37"/>
  <path class="cls-3" d="m89.79,77.28h-10.37"/>
  <g>
    <path class="cls-2" d="m0,124.57v-17.72h15.04v3.09H3.07v14.62H0Zm5.34-7.33v-2.7h8.97v2.7H5.34Z"/>
    <path class="cls-2" d="m17.62,124.57v-17.72h3.09v17.72h-3.09Z"/>
    <path class="cls-2" d="m29.9,124.57v-14.62h-6.73v-3.09h16.55v3.09h-6.73v14.62h-3.09Z"/>
    <path class="cls-2" d="m42.03,124.57v-3.09h13.28c1.66,0,2.58-.93,2.58-2.31,0-1.51-.93-2.29-2.58-2.29h-8.14c-3.34,0-5.41-2.12-5.41-5.04s1.92-4.97,5.46-4.97h12.72v3.09h-12.72c-1.41,0-2.24.83-2.24,2.17s.85,2.14,2.22,2.14h8.11c3.58,0,5.51,1.68,5.51,5.12,0,2.97-1.8,5.19-5.51,5.19h-13.28Z"/>
    <path class="cls-2" d="m69.07,119.65v-3h7.12c2.17,0,3.46-1.36,3.46-3.36s-1.29-3.34-3.46-3.34h-9.38v14.62h-3.07v-17.72h12.45c4.09,0,6.48,2.46,6.48,6.34s-2.39,6.46-6.48,6.46h-7.12Z"/>
    <path class="cls-2" d="m85.13,124.64v-17.79h3.09v17.79h-3.09Zm14.26,0v-7.7h-8.92v-2.75h8.92v-7.33h3.09v17.79h-3.09Z"/>
    <path class="cls-2" d="m105.81,124.57v-17.72h15.81v3.09h-12.74v11.53h12.77v3.09h-15.84Zm5.34-7.7v-2.61h9.82v2.61h-9.82Z"/>
    <path class="cls-2" d="m141.02,124.57l-4.48-4.92h-6.63v-2.73h7.38c2.22,0,3.39-1.27,3.39-3.56s-1.27-3.41-3.39-3.41h-9.65v14.62h-3.07v-17.72h12.72c4.05,0,6.43,2.51,6.43,6.46,0,2.92-1.36,5-3.66,5.87l5.34,5.39h-4.39Z"/>
    <path class="cls-2" d="m147.28,124.57v-17.72h15.81v3.09h-12.74v11.53h12.77v3.09h-15.84Zm5.34-7.7v-2.61h9.82v2.61h-9.82Z"/>
  </g>
</svg>